<svg width="18" height="20" viewBox="0 0 18 20" fill="none" xmlns="http://www.w3.org/2000/svg">
<path fill-rule="evenodd" clip-rule="evenodd" d="M13.4109 0.768617L13.4119 1.51824C16.1665 1.73413 17.9862 3.61119 17.9891 6.48975L18 14.9155C18.0039 18.054 16.0322 19.985 12.8718 19.99L5.15188 20C2.01119 20.004 0.0148166 18.027 0.0108673 14.8795L6.64975e-06 6.55272C-0.00394266 3.65517 1.75153 1.78311 4.50617 1.53024L4.50518 0.780611C4.5042 0.340832 4.83001 0.00999726 5.26444 0.00999726C5.69886 0.00899776 6.02468 0.338833 6.02567 0.778612L6.02666 1.47826L11.8914 1.47027L11.8904 0.770616C11.8894 0.330837 12.2152 0.00100177 12.6497 2.26549e-06C13.0742 -0.000997234 13.4099 0.328838 13.4109 0.768617ZM1.52149 6.86183L16.4696 6.84184V6.49202C16.4272 4.3431 15.349 3.21566 13.4139 3.04774L13.4148 3.81736C13.4148 4.24714 13.0801 4.58797 12.6556 4.58797C12.2212 4.58897 11.8944 4.24914 11.8944 3.81936L11.8934 3.00976L6.02865 3.01776L6.02963 3.82635C6.02963 4.25714 5.7048 4.59697 5.27038 4.59697C4.83595 4.59797 4.50915 4.25914 4.50915 3.82835L4.50816 3.05874C2.58287 3.25164 1.51755 4.38308 1.52051 6.55099L1.52149 6.86183ZM12.24 11.405V11.416C12.2499 11.8758 12.625 12.2246 13.0802 12.2146C13.5245 12.2036 13.879 11.8228 13.8691 11.363C13.8483 10.9233 13.4919 10.5644 13.0486 10.5654C12.5944 10.5754 12.239 10.9452 12.24 11.405ZM13.0555 15.8923C12.6013 15.8823 12.235 15.5035 12.234 15.0437C12.2241 14.584 12.5885 14.2032 13.0426 14.1922H13.0525C13.5165 14.1922 13.8927 14.571 13.8927 15.0407C13.8937 15.5105 13.5185 15.8913 13.0555 15.8923ZM8.17211 11.4201C8.19186 11.8799 8.56803 12.2387 9.0222 12.2187C9.4665 12.1978 9.82095 11.8179 9.80121 11.3582C9.79035 10.9084 9.42503 10.5586 8.98074 10.5596C8.52657 10.5796 8.17113 10.9604 8.17211 11.4201ZM9.02623 15.8476C8.57206 15.8676 8.19687 15.5088 8.17614 15.049C8.17614 14.5893 8.53059 14.2095 8.98476 14.1885C9.42906 14.1875 9.79536 14.5373 9.80523 14.9861C9.82597 15.4468 9.47053 15.8267 9.02623 15.8476ZM4.10434 11.4555C4.12409 11.9153 4.50026 12.2751 4.95443 12.2541C5.39873 12.2341 5.75318 11.8533 5.73245 11.3936C5.72257 10.9438 5.35726 10.594 4.91198 10.595C4.45781 10.615 4.10336 10.9958 4.10434 11.4555ZM4.95836 15.8525C4.50419 15.8735 4.12901 15.5137 4.10827 15.0539C4.10728 14.5942 4.46272 14.2133 4.91689 14.1934C5.36119 14.1924 5.72749 14.5422 5.73736 14.992C5.7581 15.4517 5.40365 15.8325 4.95836 15.8525Z" fill="#D3D3D3"/>
</svg>
