<svg width="24" height="24" viewBox="0 0 24 24" fill="none" xmlns="http://www.w3.org/2000/svg">
<g opacity="0.5">
<path d="M19.3648 23.2791C20.3802 23.2791 21.2109 22.4487 21.2109 21.4329V9.00552C21.2109 7.99013 20.3802 7.15936 19.3648 7.15936H15.9032C15.534 7.15936 15.2109 7.48244 15.2109 7.85167V9.23629C15.2109 9.60552 15.534 9.92859 15.9032 9.92859H17.7494C18.1191 9.92859 18.4417 10.2517 18.4417 10.6214V19.8171C18.4417 20.1858 18.1191 20.5094 17.7494 20.5094H6.21462C5.84539 20.5094 5.52231 20.1858 5.52231 19.8171V10.6214C5.52231 10.2517 5.84539 9.92859 6.21462 9.92859H8.06077C8.43001 9.92859 8.75308 9.60598 8.75308 9.23629V7.85167C8.75308 7.48244 8.43001 7.15936 8.06077 7.15936H4.59924C3.58385 7.15936 2.75308 7.99013 2.75308 9.00552V21.4324C2.75308 22.4469 3.58385 23.2786 4.59924 23.2786H19.3648V23.2791Z" fill="#D3D3D3"/>
<path d="M13.3625 14.2606V5.30169H16.0851C16.5466 5.30169 16.7774 4.8863 16.5 4.65553L12.3462 0.824763C12.162 0.686301 11.8846 0.686301 11.7005 0.824763L7.54663 4.65553C7.26924 4.93246 7.50001 5.30169 7.96155 5.30169H10.5923V14.2611C10.5923 14.6312 10.9154 15.0005 11.2846 15.0005H12.6692C13.0394 15 13.3625 14.6308 13.3625 14.2606Z" fill="#D3D3D3"/>
</g>
</svg>
