<svg width="20" height="20" viewBox="0 0 20 20" fill="none" xmlns="http://www.w3.org/2000/svg">
<path fill-rule="evenodd" clip-rule="evenodd" d="M5.66991 0.000106812H14.3399C17.7299 0.000106812 19.9999 2.37911 19.9999 5.91911V14.0891C19.9999 17.6201 17.7299 20.0001 14.3399 20.0001H5.66991C2.27991 20.0001 -9.15527e-05 17.6201 -9.15527e-05 14.0891V5.91911C-9.15527e-05 2.37911 2.27991 0.000106812 5.66991 0.000106812ZM13.5799 13.8101C13.8299 13.8101 14.0799 13.6801 14.2199 13.4401C14.4399 13.0891 14.3199 12.6291 13.9599 12.4101L10.3999 10.2901V5.66911C10.3999 5.26011 10.0699 4.91911 9.64991 4.91911C9.23991 4.91911 8.89991 5.26011 8.89991 5.66911V10.7201C8.89991 10.9801 9.03991 11.2301 9.26991 11.3601L13.1899 13.7001C13.3099 13.7801 13.4499 13.8101 13.5799 13.8101Z" fill="#D3D3D3"/>
</svg>
